#!OML:ASF H:\Terrain\Walking\May29\JustinRory\Justin.ASF
:FULLY-SPECIFIED
:DEGREES
1174
root 6.47995 17.9657 6.51331 -176.142 9.8416 181.689
lowerback -0.205748 0.721132 -0.0594094
upperback -0.0920976 0.972821 -1.09974
thorax 0.0391902 0.490901 -1.08948
lowerneck -15.1744 -4.65642 -14.8521
upperneck 13.0625 -3.38298 3.36636
head 6.82825 -2.03593 3.12789
rclavicle 4.06515e-014 7.95139e-016
rhumerus -31.5959 -12.1069 -82.9594
rradius 26.5978
rwrist -8.04627
rhand -14.4474 21.5467
rfingers 7.12502
rthumb 11.6977 -8.10667
lclavicle 4.06515e-014 7.95139e-016
lhumerus -34.3737 17.8826 72.4472
lradius 26.8038
lwrist -11.4124
lhand 2.23514 39.1121
lfingers 7.12502
lthumb 27.7294 67.0873
rfemur -2.30035 3.9719 11.1905
rtibia 12.1816
rfoot -8.8011 -8.5706
rtoes -6.10047
lfemur -6.85717 2.35028 -23.8998
ltibia 22.8216
lfoot -15.3643 3.58075
ltoes -2.25809
1175
root 6.48296 17.9534 6.51743 -176.088 9.93501 181.671
lowerback -0.550865 1.14698 0.157819
upperback 0.355449 1.55855 -1.5473
thorax 0.719775 0.792766 -1.65385
lowerneck -15.9696 -5.05806 -13.8391
upperneck 13.0997 -4.02493 3.17171
head 7.00252 -2.31735 2.82062
rclavicle -2.98177e-015 2.94201e-014
rhumerus -30.9026 -14.1799 -83.0171
rradius 26.3951
rwrist -7.40889
rhand -14.4119 21.594
rfingers 7.12502
rthumb 11.7319 -8.05749
lclavicle -2.98177e-015 2.94201e-014
lhumerus -32.7852 16.6004 72.8888
lradius 26.7646
lwrist -11.145
lhand 2.14341 39.2507
lfingers 7.12502
lthumb 27.6417 67.24
rfemur -2.31702 4.11495 11.1556
rtibia 12.0172
rfoot -8.74717 -8.6611
rtoes -6.16034
lfemur -7.05879 2.23335 -23.9392
ltibia 22.8598
lfoot -15.2497 3.90144
ltoes -3.31858
1176
root 6.48438 17.9532 6.52124 -176.079 9.99234 181.694
lowerback -1.44001 0.649105 0.0279858
upperback 0.652532 0.891896 -1.09963
thorax 1.49323 0.456321 -1.11759
lowerneck -15.0976 -4.57189 -14.9572
upperneck 12.2831 -3.27198 3.36556
head 6.55248 -1.95993 3.1539
rclavicle 3.03147e-015 4.77083e-015
rhumerus -30.318 -11.9624 -83.2507
rradius 26.3849
rwrist -7.78274
rhand -14.3994 21.5482
rfingers 7.12502
rthumb 11.7439 -8.10261
lclavicle 3.03147e-015 4.77083e-015
lhumerus -33.2041 18.4633 72.8051
lradius 27.0741
lwrist -11.1593
lhand 2.04493 39.2792
lfingers 7.12502
lthumb 27.5476 67.2836
rfemur -2.14922 4.20012 11.1773
rtibia 11.6489
rfoot -8.45606 -8.6018
rtoes -5.18892
lfemur -7.18089 2.03942 -23.9142
ltibia 22.9975
lfoot -15.2939 4.09339
ltoes -3.18173
1177
root 6.48507 17.9544 6.52457 -176.101 10.03 181.812
lowerback -0.412982 0.281881 -0.260029
upperback -0.153744 0.381093 -0.554408
thorax 0.0762446 0.192055 -0.419555
lowerneck -14.5935 -4.14387 -15.8394
upperneck 12.8013 -2.51608 3.24233
head 6.58492 -1.6532 3.34052
rclavicle -1.87852e-014 1.35174e-014
rhumerus -31.5979 -9.07436 -83.2359
rradius 27.0522
rwrist -9.23018
rhand -14.1409 21.235
rfingers 7.12502
rthumb 11.9933 -8.40137
lclavicle -1.87852e-014 1.35174e-014
lhumerus -35.1529 19.4439 72.4848
lradius 27.5465
lwrist -11.1892
lhand 2.08661 39.2406
lfingers 7.12502
lthumb 27.5874 67.2385
rfemur -2.08029 4.25633 11.3229
rtibia 11.5726
rfoot -8.1964 -8.60743
rtoes -4.35224
lfemur -7.11546 2.1941 -23.7866
ltibia 23.0374
lfoot -15.3316 4.10479
ltoes -4.92523
1178
root 6.48339 17.968 6.52429 -176.046 9.8741 181.939
lowerback -0.098716 0.0899371 -0.293495
upperback -0.432617 0.121492 -0.304168
thorax -0.387114 0.0624433 -0.146952
lowerneck -14.4011 -3.99479 -16.1203
upperneck 12.874 -2.25015 3.12632
head 6.55619 -1.54446 3.37624
rclavicle 1.61761e-014 -4.37326e-015
rhumerus -32.0116 -7.75032 -83.3215
rradius 27.443
rwrist -10.0321
rhand -13.7627 21.3518
rfingers 7.12502
rthumb 12.3579 -8.26297
lclavicle 1.61761e-014 -4.37326e-015
lhumerus -35.8149 19.8416 72.4412
lradius 27.9161
lwrist -11.1711
lhand 2.17992 39.4225
lfingers 7.12502
lthumb 27.6766 67.4062
rfemur -1.95528 4.1947 11.4899
rtibia 11.3077
rfoot -8.03366 -8.77406
rtoes -4.32
lfemur -7.06923 2.21879 -23.6273
ltibia 23.177
lfoot -15.5857 3.9255
ltoes -5.50362
1179
root 6.4836 17.96 6.5263 -175.994 9.71144 182.004
lowerback -0.141744 0.0488829 -0.230725
upperback -0.432988 0.0669224 -0.265112
thorax -0.363376 0.0349102 -0.141999
lowerneck -14.3129 -3.99274 -16.0216
upperneck 12.7208 -2.26282 2.98333
head 6.4903 -1.55019 3.3119
rclavicle 2.64135e-014 -1.07344e-014
rhumerus -31.8687 -8.0689 -83.2048
rradius 27.3422
rwrist -9.61294
rhand -13.5941 21.9251
rfingers 7.12502
rthumb 12.5204 -7.67982
lclavicle 2.64135e-014 -1.07344e-014
lhumerus -35.758 19.6802 72.613
lradius 28.2218
lwrist -10.9242
lhand 2.28433 39.4295
lfingers 7.12502
lthumb 27.7765 67.3971
rfemur -1.86276 4.02806 11.5648
rtibia 11.1006
rfoot -7.93902 -8.68904
rtoes -4.13292
lfemur -7.30508 2.34161 -23.5562
ltibia 23.2629
lfoot -15.3592 3.8115
ltoes -5.99241
1180
root 6.48364 17.9595 6.52839 -176.033 9.78097 182.003
lowerback -0.0847872 0.137224 -0.183542
upperback -0.371817 0.184373 -0.343073
thorax -0.332228 0.0932635 -0.248438
lowerneck -14.472 -4.03939 -15.8129
upperneck 12.7666 -2.32183 2.857
head 6.53296 -1.58095 3.23049
rclavicle -1.67973e-014 -5.1684e-015
rhumerus -31.6281 -8.58127 -83.2019
rradius 27.1673
rwrist -9.1967
rhand -13.5491 22.1224
rfingers 7.12502
rthumb 12.5638 -7.47982
lclavicle -1.67973e-014 -5.1684e-015
lhumerus -35.4742 19.3193 72.7895
lradius 28.4351
lwrist -10.7274
lhand 2.31854 39.2184
lfingers 7.12502
lthumb 27.8092 67.1807
rfemur -1.76223 4.04489 11.543
rtibia 10.956
rfoot -7.82193 -8.55987
rtoes -3.68612
lfemur -7.29889 2.38899 -23.5575
ltibia 23.2987
lfoot -15.2499 3.63513
ltoes -3.89068
1181
root 6.48508 17.9605 6.53348 -176.022 9.79891 181.991
lowerback 0.0140714 0.126411 -0.221131
upperback -0.398357 0.16946 -0.348796
thorax -0.414913 0.0859876 -0.233495
lowerneck -14.5449 -4.04057 -15.8276
upperneck 12.8671 -2.29424 2.81407
head 6.57566 -1.5746 3.22152
rclavicle -5.09386e-015 1.59028e-015
rhumerus -31.5538 -8.50045 -83.2845
rradius 27.1716
rwrist -9.14808
rhand -13.4143 22.0401
rfingers 7.12502
rthumb 12.6938 -7.55408
lclavicle -5.09386e-015 1.59028e-015
lhumerus -35.4154 19.2166 72.8613
lradius 28.6925
lwrist -10.5303
lhand 2.21627 39.0586
lfingers 7.12502
lthumb 27.7114 67.0367
rfemur -1.91369 4.10194 11.5341
rtibia 11.191
rfoot -7.88959 -8.67483
rtoes -3.9181
lfemur -7.25876 2.18958 -23.5715
ltibia 23.1757
lfoot -15.285 3.78353
ltoes -4.90657
1182
root 6.48383 17.9643 6.53559 -175.977 9.65334 181.962
lowerback -0.112517 0.0394411 -0.605291
upperback -0.32298 0.05347 -0.0374719
thorax -0.267819 0.0287569 0.300775
lowerneck -14.5748 -4.06302 -16.1836
upperneck 12.8408 -2.19581 2.65332
head 6.56998 -1.54827 3.23337
rclavicle -8.05078e-015 -7.55382e-015
rhumerus -31.3132 -7.93357 -83.0112
rradius 27.2605
rwrist -9.40447
rhand -13.2226 21.9573
rfingers 7.12502
rthumb 12.8786 -7.62534
lclavicle -8.05078e-015 -7.55382e-015
lhumerus -35.3229 19.5738 73.3185
lradius 28.9079
lwrist -10.417
lhand 2.12037 38.7356
lfingers 7.12502
lthumb 27.6197 66.7284
rfemur -2.07644 3.93929 11.5207
rtibia 11.442
rfoot -8.02608 -8.75208
rtoes -4.6667
lfemur -7.25045 2.01445 -23.6008
ltibia 23.0425
lfoot -15.333 3.83604
ltoes -6.27635
